<?xml version="1.0" standalone="no"?>
<!DOCTYPE svg PUBLIC "-//W3C//DTD SVG 20010904//EN"
 "http://www.w3.org/TR/2001/REC-SVG-20010904/DTD/svg10.dtd">
<svg version="1.0" xmlns="http://www.w3.org/2000/svg"
 width="940.000000pt" height="1394.000000pt" viewBox="0 0 940.000000 1394.000000"
 preserveAspectRatio="xMidYMid meet">

<g transform="translate(0.000000,1394.000000) scale(0.100000,-0.100000)"
fill="#000000" stroke="none">
<path d="M6863 13373 c-47 -48 -97 -103 -111 -121 -52 -68 -177 -164 -507
-387 -104 -71 -261 -180 -349 -243 -88 -63 -216 -149 -285 -191 -70 -43 -177
-108 -239 -147 -148 -90 -227 -156 -312 -262 -105 -131 -148 -259 -210 -622
-17 -102 -36 -214 -42 -250 -7 -40 -11 -216 -11 -460 1 -323 4 -415 18 -505
27 -168 10 -287 -62 -443 -46 -101 -63 -163 -63 -242 -1 -114 -11 -140 -90
-242 -98 -125 -93 -122 -86 -53 7 72 14 227 26 589 4 148 12 272 17 275 4 3 9
51 9 106 1 55 3 159 5 230 8 278 -31 658 -76 745 -38 73 -135 156 -215 183
-22 7 -37 17 -33 22 5 4 -9 5 -30 1 -56 -10 -236 -103 -278 -143 -28 -26 -38
-31 -46 -21 -58 77 -128 280 -171 498 -40 201 -63 356 -55 375 7 19 -51 140
-100 208 -27 38 -69 70 -218 163 -101 64 -247 150 -324 192 -77 41 -165 91
-195 110 -56 35 -152 111 -158 124 -7 14 -188 147 -237 172 -53 29 -75 32 -93
14 -29 -29 4 -246 73 -476 10 -35 10 -40 -1 -31 -20 17 -57 -63 -50 -110 25
-174 34 -213 70 -277 27 -49 27 -50 -14 -29 -36 19 -46 6 -25 -34 8 -17 15
-35 15 -41 0 -11 -115 66 -385 256 -71 50 -132 88 -135 83 -8 -12 -111 79
-552 484 -77 70 -145 127 -153 127 -22 0 -54 -48 -60 -93 -6 -40 14 -217 35
-311 14 -65 116 -338 161 -433 22 -47 43 -109 48 -145 5 -35 17 -83 25 -107 9
-24 16 -46 16 -48 0 -3 -18 10 -40 27 -48 38 -87 38 -109 -2 -13 -23 -13 -39
-3 -113 7 -48 10 -90 7 -93 -3 -3 -15 4 -28 15 -12 12 -69 52 -127 89 -58 38
-154 107 -215 154 -187 147 -242 178 -260 150 -37 -60 -24 -185 41 -380 31
-93 180 -370 279 -520 108 -164 125 -192 125 -210 0 -16 -35 -4 -100 36 -63
39 -80 41 -103 16 -34 -37 -20 -106 83 -416 63 -187 85 -232 175 -356 30 -41
86 -121 124 -178 l70 -103 -24 -23 c-35 -35 -25 -79 54 -241 71 -145 115 -202
221 -287 61 -50 89 -75 180 -162 132 -126 383 -299 434 -298 11 0 68 7 126 16
147 22 245 20 384 -9 171 -35 176 -39 278 -242 50 -99 98 -181 120 -204 42
-44 116 -83 233 -124 44 -16 84 -31 88 -35 5 -4 -8 -41 -29 -81 -38 -76 -62
-164 -110 -398 -27 -133 -27 -137 -15 -290 8 -101 28 -235 57 -377 49 -246 49
-252 30 -309 -8 -22 -16 -64 -19 -93 -3 -30 -13 -78 -23 -108 -14 -44 -15 -60
-5 -80 7 -17 17 -24 27 -20 8 3 12 2 9 -4 -3 -6 -3 -10 2 -11 4 0 18 -2 31 -5
17 -3 21 0 16 8 -4 7 18 -11 49 -39 31 -29 62 -53 69 -53 7 0 21 -22 31 -50
10 -27 22 -50 27 -50 5 0 28 -33 51 -72 23 -40 57 -93 76 -117 32 -43 33 -46
27 -110 -8 -75 -115 -373 -209 -581 -85 -189 -151 -337 -283 -640 -66 -151
-159 -362 -206 -468 -48 -106 -84 -197 -81 -202 2 -4 -2 -13 -10 -20 -7 -6
-12 -17 -9 -24 3 -8 -2 -16 -11 -20 -9 -3 -15 -11 -13 -18 3 -17 -38 -141 -63
-189 -22 -45 -24 -52 -6 -44 6 4 4 0 -6 -8 -44 -37 -84 -108 -93 -166 -3 -20
-9 -63 -14 -95 -5 -32 -7 -64 -3 -69 7 -12 6 -154 -2 -166 -3 -5 1 -11 8 -14
8 -3 14 0 14 6 0 7 8 40 17 74 15 58 15 66 1 93 -14 28 -15 39 0 122 8 50 24
102 34 117 44 64 105 192 121 256 22 83 28 101 76 202 49 105 167 358 216 463
22 47 59 128 83 180 23 52 66 144 94 204 28 59 51 110 51 112 0 2 11 27 24 56
57 127 175 413 227 548 34 91 46 113 59 105 10 -6 15 10 26 75 4 25 9 47 9 50
1 3 6 24 10 48 l8 43 21 -20 c14 -13 22 -34 23 -56 1 -20 6 -48 11 -63 9 -23
27 -436 23 -529 -1 -18 -19 -88 -40 -155 -21 -68 -59 -188 -84 -268 -25 -80
-60 -206 -77 -280 -18 -74 -66 -252 -107 -395 -41 -143 -86 -307 -99 -365 -14
-58 -34 -134 -45 -170 -37 -121 -40 -154 -23 -274 9 -61 20 -112 24 -114 4 -2
6 -12 3 -23 -3 -11 2 -39 11 -63 l16 -43 -69 -280 c-62 -251 -118 -547 -136
-718 -3 -33 -12 -112 -20 -175 -7 -63 -13 -125 -12 -137 2 -36 17 -27 16 10 0
32 30 253 71 517 30 186 86 440 117 519 58 151 62 168 63 229 0 45 -3 61 -12
56 -6 -4 -8 -3 -5 2 3 6 -3 43 -13 84 -33 126 -49 237 -39 273 4 17 18 59 30
92 25 70 20 53 58 230 17 77 33 147 35 155 59 217 146 510 177 595 22 61 51
144 64 185 81 259 113 344 118 320 4 -14 15 -101 27 -195 35 -286 71 -529 80
-547 6 -10 7 -24 4 -32 -3 -8 -3 -19 0 -25 4 -5 8 -58 10 -118 3 -113 -12
-220 -40 -285 -17 -39 -15 -82 7 -135 11 -28 11 -72 -5 -285 -9 -139 -26 -347
-37 -463 -11 -115 -28 -311 -39 -435 -11 -124 -26 -263 -35 -310 -18 -101 -18
-100 -4 -100 5 0 7 5 4 10 -4 6 -1 18 6 26 6 8 9 17 6 20 -3 3 -2 17 3 29 5
13 11 45 14 72 3 26 17 143 30 258 13 116 27 239 31 275 4 36 9 81 11 100 2
19 11 136 19 260 8 124 21 266 28 315 17 120 14 209 -9 268 -15 39 -16 51 -6
68 26 42 44 189 38 314 -3 66 -10 136 -15 155 -5 19 -12 98 -16 175 -3 77 -15
203 -25 280 -79 579 -99 813 -84 964 l7 61 53 0 54 0 1 -57 c0 -32 2 -67 4
-78 2 -11 5 -98 5 -192 1 -95 5 -175 9 -178 12 -7 21 111 22 290 0 88 4 183 8
210 l7 50 13 -30 c7 -16 21 -142 31 -280 11 -137 22 -275 25 -305 10 -106 14
-197 20 -510 6 -246 5 -329 -6 -375 l-13 -59 -13 70 c-16 84 -43 264 -49 319
-13 129 -41 507 -40 547 1 26 -2 44 -6 42 -15 -10 -8 -295 12 -457 11 -89 22
-191 25 -227 3 -36 13 -119 21 -185 8 -66 18 -141 21 -167 3 -27 10 -48 14
-48 17 0 9 -75 -11 -100 -30 -39 -27 -58 31 -187 19 -41 19 -41 -5 -105 -29
-78 -48 -191 -39 -242 3 -21 22 -62 41 -90 33 -49 34 -54 28 -116 -4 -35 -18
-116 -31 -180 -23 -110 -39 -211 -49 -311 -3 -25 -17 -104 -32 -175 -15 -71
-27 -140 -28 -154 -1 -14 -7 -43 -14 -65 -6 -22 -14 -56 -16 -75 -3 -19 -17
-87 -32 -150 -14 -63 -27 -124 -30 -135 -26 -124 -12 -109 25 26 15 57 32 113
36 123 7 15 5 18 -6 12 -8 -4 -5 0 5 8 11 9 17 16 14 16 -3 0 7 39 23 88 17
48 32 103 35 122 3 19 15 80 25 135 11 55 22 120 26 145 21 162 24 -41 4 -300
-4 -52 -7 -165 -6 -250 1 -85 -1 -139 -5 -120 -4 19 -7 -28 -7 -105 0 -77 -3
-156 -7 -175 -4 -24 -3 -29 3 -15 8 17 9 15 14 -15 3 -19 4 34 3 117 -1 84 1
148 4 143 12 -19 58 944 48 1010 -2 16 -1 27 4 24 4 -3 8 32 8 78 0 46 7 133
15 193 20 150 19 340 -2 438 -13 63 -15 90 -6 140 10 62 -2 146 -25 169 -5 5
-1 63 8 136 15 110 16 172 9 457 -4 182 -8 349 -8 373 0 23 -3 48 -8 54 -4 7
-6 38 -5 70 1 32 -2 58 -6 58 -4 0 -8 26 -8 57 -1 32 -4 87 -7 123 -3 36 -7
97 -10 135 -7 91 -14 178 -21 239 l-5 48 47 -7 c26 -4 50 -9 53 -11 3 -2 9
-61 13 -131 3 -70 8 -166 11 -213 2 -47 7 -168 10 -270 8 -305 18 -491 25
-495 6 -4 5 54 -4 395 -6 226 -9 660 -5 664 2 2 25 2 51 -1 l46 -5 6 -102 c20
-365 30 -500 56 -736 17 -146 30 -287 31 -315 0 -28 3 -43 7 -33 4 9 7 -108 6
-260 0 -228 -3 -285 -17 -324 -9 -26 -14 -58 -12 -70 2 -13 6 -42 9 -65 3 -23
11 -54 18 -70 6 -15 12 -30 13 -33 0 -3 5 -15 9 -28 5 -16 0 -48 -17 -100 -14
-42 -37 -113 -51 -157 -30 -95 -33 -188 -11 -450 25 -303 30 -511 28 -1110 -1
-389 -5 -626 -12 -675 -19 -124 -73 -329 -86 -324 -6 3 -9 19 -7 40 5 44 -36
141 -87 204 -57 71 -67 84 -54 77 17 -11 27 122 19 266 -8 137 -16 167 -16 58
0 -54 -4 -73 -15 -77 -8 -3 -20 -21 -27 -40 -6 -19 -16 -34 -20 -34 -4 0 -9
62 -10 138 -2 172 -2 190 -9 197 -3 3 -9 -41 -12 -97 -3 -57 -14 -157 -23
-223 -9 -66 -16 -163 -15 -215 l1 -95 -65 -68 c-36 -37 -67 -67 -69 -67 -2 0
-6 26 -9 58 -4 31 -30 127 -57 212 -28 85 -49 164 -47 175 60 261 79 350 87
400 15 89 20 117 25 145 4 20 3 22 -5 8 -6 -9 -15 -36 -20 -60 -17 -81 -80
-333 -100 -403 -28 -99 -25 -138 26 -335 81 -311 86 -334 85 -400 0 -36 -7
-92 -15 -125 -9 -32 -16 -85 -16 -117 0 -31 -5 -60 -11 -63 -5 -4 -25 8 -44
27 -42 41 -75 50 -195 53 -52 1 -120 6 -150 10 -53 7 -54 8 -33 24 11 10 60
39 108 66 146 82 155 109 170 500 3 88 14 232 25 320 11 88 22 180 25 205 8
66 16 111 25 145 15 50 19 95 9 95 -5 0 -10 -3 -10 -7 -1 -5 -3 -17 -5 -28 -1
-11 -5 -31 -9 -45 -3 -14 -7 -34 -9 -45 -1 -11 -7 -29 -13 -40 -12 -22 -39
-139 -47 -200 -3 -22 -6 -112 -6 -200 -1 -88 -5 -189 -10 -225 -5 -36 -14
-108 -20 -160 -15 -130 -34 -191 -67 -221 -42 -39 -142 -96 -193 -109 -48 -13
-103 -63 -98 -90 3 -11 18 -15 63 -16 33 0 77 -4 98 -8 31 -6 37 -5 31 6 -6
11 -5 11 8 0 10 -8 31 -10 61 -6 54 8 132 -2 149 -19 34 -32 106 -71 127 -69
48 4 61 28 57 100 -3 43 0 78 10 100 8 19 14 56 14 83 0 28 5 49 11 49 5 0 7
-4 4 -10 -5 -9 45 -15 82 -11 27 4 239 -51 266 -68 l30 -19 78 40 c90 47 127
47 183 -2 19 -17 39 -30 45 -30 6 0 11 -17 11 -40 0 -22 4 -40 8 -40 5 0 9 6
9 13 2 38 16 124 22 135 17 31 53 -102 65 -233 7 -85 15 -130 23 -130 6 0 21
-12 33 -28 12 -15 27 -27 33 -27 16 -1 77 -57 77 -71 0 -17 43 -48 68 -49 12
0 22 -6 22 -14 0 -26 -45 -43 -134 -50 -130 -11 -275 -39 -324 -65 l-43 -22 5
23 c3 13 12 55 21 95 8 40 15 97 15 127 0 31 4 56 9 56 5 0 12 11 15 24 3 13
24 45 46 72 43 53 70 102 70 129 0 13 -6 9 -22 -13 -13 -17 -48 -61 -79 -99
-74 -91 -89 -137 -105 -318 -4 -44 -10 -90 -15 -102 -13 -34 6 -38 64 -13 71
31 213 60 329 67 68 4 107 12 127 24 30 18 78 95 67 107 -3 3 -23 6 -44 6 -39
1 -40 1 -58 56 -9 28 -22 40 -63 60 -97 48 -100 55 -112 316 -10 203 -9 240 7
341 16 104 17 135 5 366 -14 297 -16 1477 -2 1587 5 45 21 101 39 140 28 61
30 63 35 35 3 -17 5 -37 5 -45 0 -8 5 -85 11 -170 14 -185 30 -287 76 -480 50
-214 60 -263 57 -283 -1 -10 2 -16 7 -13 5 4 12 -29 16 -71 4 -43 18 -158 31
-256 36 -254 35 -283 -8 -392 -53 -132 -78 -221 -78 -274 0 -25 -7 -91 -15
-145 -16 -105 -18 -213 -6 -310 6 -45 13 -64 31 -78 28 -23 72 -18 105 11 43
40 83 52 168 51 45 0 91 0 102 1 11 0 54 0 96 -1 57 -1 79 3 88 14 18 21 -8
62 -52 81 -212 91 -239 111 -267 202 -18 58 -20 93 -20 333 0 148 -4 271 -8
274 -5 3 -7 19 -4 36 3 19 0 30 -8 30 -9 0 -11 -17 -6 -67 4 -38 7 -72 7 -78
0 -5 -2 -122 -6 -258 -6 -247 -3 -304 17 -276 7 10 8 8 3 -7 -3 -13 3 -41 17
-69 20 -42 32 -52 103 -88 83 -42 86 -44 109 -46 8 0 24 -10 37 -21 l24 -20
-49 17 c-42 14 -56 14 -98 3 -27 -6 -83 -15 -126 -19 -67 -6 -84 -11 -129 -44
-29 -20 -59 -37 -66 -37 -33 0 -39 268 -9 367 6 17 13 71 17 120 5 60 23 141
57 253 27 91 49 183 49 205 0 22 -9 74 -20 115 -11 41 -32 152 -46 245 -29
185 -67 406 -96 555 -51 262 -90 533 -89 613 1 31 -3 57 -7 57 -7 0 -11 152
-4 175 6 18 1 46 -7 41 -4 -2 -8 3 -8 12 -1 9 -7 48 -13 87 -11 61 -10 74 5
107 9 21 22 38 29 38 7 0 20 9 31 21 26 28 22 107 -12 244 -19 77 -28 143 -30
220 -3 102 -2 114 23 165 32 68 43 112 104 445 53 286 67 396 74 590 9 205 16
238 70 310 12 17 36 57 54 90 l31 60 -6 -60 c-3 -33 -7 -71 -9 -85 -2 -14 -9
-61 -15 -106 -6 -44 -13 -91 -15 -104 -3 -13 -7 -40 -10 -60 -3 -20 -8 -47
-11 -60 -2 -14 -12 -63 -20 -110 -8 -47 -26 -143 -39 -215 -41 -222 -68 -456
-54 -470 7 -7 8 -5 3 8 -3 9 -2 23 4 30 13 15 103 479 145 741 l12 78 35 -151
c19 -83 38 -143 41 -134 4 12 8 6 12 -17 3 -19 20 -95 36 -168 17 -72 45 -192
62 -265 16 -72 32 -139 34 -147 2 -8 28 -127 58 -265 30 -137 59 -251 66 -253
6 -2 11 6 10 20 0 22 -1 22 -10 3 -6 -14 -7 -7 -3 24 5 33 3 42 -6 36 -9 -5
-10 -2 -5 14 3 11 3 42 -1 68 -6 39 -9 44 -16 28 -5 -14 -6 -7 -3 20 5 31 3
37 -5 25 -9 -12 -10 -8 -6 18 4 21 -9 94 -34 203 -22 93 -40 173 -40 177 0 4
-5 0 -11 -8 -8 -11 -9 -6 -5 20 5 27 3 31 -5 20 -8 -12 -9 -8 -6 15 7 41 -24
173 -35 148 -5 -11 -6 -2 -3 22 4 31 3 36 -5 25 -9 -11 -10 -7 -5 20 5 28 4
32 -5 20 -9 -12 -10 -8 -6 18 4 23 2 31 -6 26 -8 -5 -9 1 -4 20 5 20 4 26 -5
20 -9 -5 -10 1 -6 25 5 23 3 30 -5 25 -8 -5 -9 -2 -4 11 9 24 -4 86 -16 79 -6
-4 -8 2 -3 15 4 13 2 21 -5 21 -8 0 -10 9 -6 28 5 21 4 24 -5 12 -8 -12 -9 -7
-5 23 3 22 1 37 -6 37 -5 0 -7 7 -4 16 3 9 3 21 -1 27 -4 7 -8 14 -9 17 0 3
-4 31 -8 63 -5 31 -12 57 -17 57 -9 0 -6 87 15 330 11 131 21 191 37 235 l23
60 7 -35 c62 -281 98 -490 100 -575 1 -72 27 -283 44 -364 8 -39 16 -84 17
-101 1 -16 6 -30 11 -30 5 0 7 -11 5 -25 -3 -14 -1 -25 4 -25 6 0 8 -15 6 -34
-2 -20 0 -32 6 -29 5 4 7 -11 3 -35 -3 -25 -1 -42 5 -42 5 0 8 -12 7 -28 -1
-15 1 -38 4 -52 3 -14 9 -43 11 -65 3 -22 8 -53 12 -70 4 -16 8 -37 9 -45 1
-8 5 -22 8 -30 14 -36 96 -390 102 -440 4 -34 17 -69 32 -93 14 -20 26 -50 26
-65 0 -15 -2 -67 -3 -117 -1 -49 3 -110 9 -135 19 -82 30 -338 36 -825 3 -264
10 -554 15 -645 6 -91 9 -268 9 -395 -1 -273 -8 -267 -60 52 -17 109 -34 205
-37 213 -2 8 -4 32 -3 53 2 20 -2 37 -7 37 -9 0 -8 -116 2 -160 12 -51 25
-147 31 -230 4 -47 13 -110 20 -140 30 -119 15 -401 -21 -431 -8 -6 -14 -30
-14 -53 -1 -22 -7 -70 -15 -106 -8 -36 -14 -91 -15 -122 0 -31 -4 -60 -10 -63
-18 -11 -11 -51 12 -73 34 -31 72 -42 107 -32 25 7 37 4 63 -14 166 -114 200
-136 208 -131 4 3 18 -7 29 -22 l21 -28 -4 25 c-1 13 -16 33 -32 45 -16 11
-71 52 -122 90 -122 91 -129 95 -183 95 -68 0 -73 11 -60 117 18 131 42 245
58 268 22 32 37 97 24 105 -8 4 -7 17 4 43 8 20 15 53 15 74 0 21 4 45 10 53
6 10 9 7 9 -15 0 -17 4 -43 10 -60 9 -24 10 -17 6 40 -3 39 -5 81 -6 95 0 14
-7 160 -14 325 -8 165 -17 604 -19 975 -4 579 -7 688 -21 765 -17 91 -23 205
-15 305 4 47 0 64 -28 120 -17 36 -41 108 -51 160 -26 127 -48 216 -54 227 -4
5 -18 79 -32 164 -14 85 -33 185 -41 222 -9 38 -13 80 -9 94 6 25 7 24 41 -23
36 -51 144 -255 144 -273 0 -15 175 -433 225 -537 35 -73 45 -107 51 -167 6
-70 5 -81 -21 -133 -24 -49 -26 -61 -17 -93 6 -20 20 -99 32 -176 11 -77 29
-174 41 -215 11 -41 35 -138 54 -215 18 -77 63 -257 99 -400 79 -318 117 -498
150 -720 14 -93 32 -217 41 -275 8 -58 20 -129 25 -158 7 -43 5 -65 -9 -112
-10 -33 -26 -66 -34 -75 -9 -8 -14 -22 -11 -29 3 -8 -2 -30 -10 -51 -9 -20
-18 -73 -20 -118 -5 -85 -11 -120 -21 -137 -11 -18 41 -57 96 -73 30 -9 81
-35 113 -57 33 -23 62 -37 69 -33 20 12 70 2 113 -23 72 -42 151 -64 233 -64
95 0 231 28 231 47 0 28 -19 50 -57 65 -119 50 -179 73 -184 71 -3 -1 -18 20
-33 46 -14 27 -51 75 -82 107 -126 131 -208 257 -217 333 -3 29 -13 63 -21 75
-7 12 -17 60 -20 106 -4 47 -12 112 -17 144 -6 33 -11 69 -12 80 0 12 -4 26
-9 32 -4 6 -6 20 -3 32 2 12 -1 22 -6 22 -6 0 -8 -25 -5 -67 3 -38 8 -113 11
-168 l6 -100 -45 50 c-28 31 -45 60 -46 75 0 14 -9 63 -20 109 -19 77 -30 142
-44 256 -3 22 -14 87 -25 145 -11 58 -23 120 -26 138 -3 18 -12 58 -20 90 -9
31 -17 69 -20 83 -5 28 -48 194 -70 274 -8 28 -17 61 -19 75 -3 14 -19 77 -36
140 -58 224 -78 327 -99 520 -15 145 -18 206 -11 237 23 97 -10 275 -72 396
-11 23 -51 112 -88 197 -106 244 -123 280 -132 280 -4 0 -8 6 -8 14 0 8 -14
40 -31 72 -42 79 -82 161 -99 204 -8 19 -26 58 -41 85 -30 54 -130 404 -134
470 -2 22 -6 103 -9 180 -4 81 -17 195 -32 273 -14 72 -27 144 -29 160 -2 15
-7 37 -11 50 -3 12 -2 22 3 22 5 0 15 -24 22 -52 22 -85 123 -387 206 -613
103 -279 410 -1041 482 -1195 50 -108 83 -199 83 -228 0 -42 32 -144 60 -192
15 -25 31 -58 37 -75 17 -51 16 -179 -3 -245 -15 -55 -15 -62 -1 -78 9 -10 20
-53 27 -102 6 -47 19 -139 30 -205 10 -66 29 -185 40 -265 12 -80 33 -202 46
-272 13 -71 37 -216 54 -324 17 -112 37 -205 45 -218 15 -20 15 -20 10 9 -2
17 -14 100 -26 185 -28 209 -25 192 -48 310 -11 58 -22 119 -25 135 -2 17 -16
95 -31 175 -14 80 -28 165 -31 190 -3 25 -16 124 -29 220 -20 152 -22 194 -16
315 9 150 3 183 -38 224 -21 21 -53 77 -57 99 -1 8 -8 46 -15 85 -16 95 -42
174 -90 267 -21 43 -39 83 -39 90 0 6 -6 24 -14 38 -8 15 -29 65 -47 112 -17
47 -64 171 -104 275 -40 105 -100 264 -135 355 -34 91 -84 221 -112 290 -60
151 -172 445 -226 592 l-39 108 37 33 c127 111 245 304 314 514 29 87 29 97
14 468 -1 28 2 98 6 156 15 190 -28 548 -76 643 -21 40 -84 137 -96 146 -4 3
-21 33 -38 67 l-30 61 65 18 c107 28 263 84 307 109 84 49 184 172 265 326 22
43 49 85 59 94 18 16 98 35 295 70 118 21 233 18 352 -9 127 -28 159 -24 278
36 158 79 281 159 430 278 39 30 122 92 185 136 143 101 210 181 316 381 37
70 42 99 20 128 -13 18 -15 18 -57 2 -42 -17 -41 -15 57 86 55 56 131 138 169
182 39 44 85 96 103 115 63 68 269 527 280 627 5 46 -9 73 -37 73 -10 0 -48
-16 -87 -35 -38 -19 -72 -35 -76 -35 -4 0 25 44 64 98 38 53 85 126 102 162
18 36 61 110 97 165 122 186 156 240 172 270 31 62 107 280 107 309 0 46 -19
106 -35 113 -19 7 -176 -82 -475 -267 -161 -100 -200 -120 -479 -237 -8 -4
-12 -2 -8 3 13 22 77 444 77 509 0 56 -4 73 -21 91 -26 27 -36 24 -118 -43
-30 -24 -67 -51 -83 -59 l-28 -14 21 52 c63 162 116 293 150 373 78 185 158
434 169 529 6 50 14 117 18 149 11 76 7 108 -23 167 -17 33 -32 50 -44 50 -11
0 -119 -101 -262 -246 -134 -135 -271 -265 -305 -289 -33 -25 -139 -110 -234
-189 -96 -80 -175 -144 -177 -142 -2 1 2 38 8 82 16 114 -1 264 -30 264 -5 0
-30 -16 -55 -35 -26 -19 -48 -35 -51 -35 -2 0 5 19 15 43 11 23 20 65 20 92 0
28 5 84 11 125 5 41 10 132 10 203 0 146 -10 180 -54 185 -24 3 -41 -10 -114
-85z m113 15 c14 -22 6 -204 -16 -353 -18 -121 -29 -168 -61 -242 -48 -114
-50 -135 -10 -99 9 8 51 39 93 69 74 53 77 55 84 34 4 -12 7 -54 7 -94 -1 -62
-6 -83 -44 -166 l-44 -95 -130 -99 c-71 -54 -260 -197 -420 -318 -255 -192
-354 -270 -578 -453 -75 -61 -196 -121 -280 -138 -98 -20 -180 -77 -336 -234
l-124 -125 6 -80 c28 -360 28 -372 16 -506 -9 -102 -9 -152 0 -201 16 -94 14
-131 -19 -342 -38 -247 -47 -317 -65 -513 -14 -164 -44 -298 -71 -319 -8 -6
-10 -15 -6 -19 4 -5 2 -5 -4 -2 -7 4 -67 -20 -135 -52 -68 -32 -137 -61 -152
-65 -44 -10 -88 -44 -135 -101 -49 -61 -96 -80 -86 -36 3 14 12 73 20 131 13
85 20 109 38 125 30 27 136 150 173 203 26 36 32 55 38 125 4 54 25 145 62
267 67 227 82 337 65 472 -16 119 -33 509 -31 703 1 169 38 405 103 655 82
317 116 391 244 524 55 57 105 112 111 123 6 12 79 61 164 111 84 50 220 140
302 199 357 258 638 450 750 513 33 18 85 50 115 70 78 53 243 211 292 281 42
61 52 68 64 47z m1122 -83 c16 -34 15 -76 -3 -225 -20 -161 -109 -435 -191
-585 -30 -55 -87 -166 -125 -246 -61 -125 -76 -149 -104 -162 -40 -19 -105
-75 -105 -91 0 -7 3 -8 8 -1 4 6 33 23 64 38 l57 26 35 -33 36 -32 -35 -58
c-19 -31 -89 -127 -155 -213 -163 -209 -149 -216 23 -12 85 101 163 214 182
263 11 29 25 46 39 50 11 3 49 28 84 56 34 27 64 50 67 50 15 0 -17 -262 -48
-392 -16 -63 -81 -181 -126 -225 -15 -15 -53 -38 -82 -50 -30 -12 -187 -80
-349 -152 -162 -71 -296 -128 -298 -126 -2 1 21 40 51 86 64 99 132 230 142
276 3 18 11 35 16 38 5 4 9 14 9 23 0 9 -29 -37 -63 -103 -34 -66 -98 -172
-141 -236 l-79 -116 -86 -38 c-47 -21 -167 -77 -266 -126 -206 -100 -274 -121
-400 -124 -82 -1 -98 -5 -187 -44 -53 -23 -120 -60 -149 -82 -29 -21 -72 -48
-96 -60 -24 -12 -50 -31 -58 -43 -7 -11 -18 -64 -25 -116 -19 -153 -56 -331
-90 -429 -18 -54 -34 -125 -39 -178 -6 -71 -18 -113 -60 -218 -105 -259 -133
-332 -171 -440 -72 -208 -124 -297 -199 -342 -52 -31 -164 -65 -209 -64 -13 1
-21 -2 -18 -7 6 -10 -80 -7 -144 6 -30 6 -88 13 -128 14 l-73 2 33 28 c54 45
109 75 221 118 128 50 188 97 210 168 9 27 18 108 21 192 5 124 22 300 40 405
67 400 69 417 57 515 -10 73 -10 121 -1 205 11 110 9 227 -11 442 l-10 113 97
92 c130 125 222 185 310 203 123 26 245 96 394 226 69 60 337 268 665 516 110
83 254 199 320 257 66 59 147 123 179 144 165 104 306 221 479 396 98 100 195
199 215 221 44 48 243 225 252 225 4 0 12 -11 18 -25z m-5613 -364 c38 -25
105 -77 150 -116 130 -114 157 -132 470 -300 399 -215 378 -201 440 -297 65
-100 84 -175 110 -433 19 -197 27 -239 75 -390 46 -146 75 -220 101 -256 l20
-28 -54 -93 c-40 -69 -66 -101 -102 -127 -36 -26 -45 -30 -37 -15 6 11 12 88
13 171 l3 151 -92 90 c-117 113 -205 168 -286 175 -81 8 -186 60 -298 150 -51
41 -176 132 -278 202 -102 70 -198 140 -213 154 -36 32 -74 103 -55 100 46 -6
49 11 12 82 -47 93 -80 307 -51 335 3 3 27 -9 54 -27 54 -38 115 -70 120 -65
2 2 -16 24 -41 49 -93 96 -144 242 -162 462 -8 100 -11 100 101 26z m-1279
-56 c19 -8 94 -72 167 -143 251 -245 489 -438 641 -519 50 -26 108 -63 130
-82 57 -47 121 -93 271 -196 199 -136 514 -363 570 -410 91 -76 221 -135 300
-135 61 0 162 -60 255 -152 30 -30 61 -57 68 -59 17 -6 18 -158 1 -225 -12
-48 3 -109 25 -98 6 3 2 -3 -9 -13 -38 -35 -92 -108 -120 -163 -39 -76 -46
-197 -16 -289 12 -35 21 -68 21 -73 0 -6 21 -59 46 -119 l45 -108 -9 -338 c-5
-186 -7 -368 -3 -405 6 -68 -2 -84 -13 -26 -3 18 -35 128 -71 243 -57 181 -67
224 -71 310 -3 55 -15 135 -25 178 -24 94 -46 248 -54 377 -11 171 -12 176
-52 201 -19 12 -59 43 -89 69 -29 25 -86 62 -126 82 -60 29 -88 36 -158 41
-102 6 -167 29 -281 98 -101 62 -348 196 -639 349 -249 130 -340 182 -340 194
0 5 8 2 18 -5 9 -8 5 2 -9 21 -14 19 -36 40 -48 46 -11 6 -18 13 -15 17 10 10
-47 77 -60 70 -6 -3 -8 -3 -4 2 11 11 -11 47 -24 39 -6 -4 -8 -3 -4 4 3 6 -3
26 -14 44 -26 42 -25 51 5 83 23 26 25 26 54 12 21 -11 33 -12 38 -5 9 16 -34
48 -64 48 -18 0 -28 9 -40 38 -8 20 -52 111 -98 202 -116 233 -200 467 -225
629 -20 128 -24 181 -15 181 3 0 21 -7 41 -15z m-366 -954 c0 -12 165 -151
263 -220 47 -33 119 -76 160 -95 41 -18 77 -39 81 -45 4 -6 12 -11 17 -11 6 0
7 5 4 10 -3 6 -1 10 4 10 6 0 11 -6 11 -12 0 -10 3 -9 9 1 6 9 11 10 15 2 4
-6 5 -15 2 -20 -3 -5 1 -14 9 -21 12 -10 13 -8 9 12 -4 12 -7 31 -7 40 -1 11
-6 14 -17 9 -22 -12 -40 -2 -51 28 -12 30 -39 175 -39 209 0 22 1 21 49 -12
27 -18 60 -36 73 -39 16 -4 28 -19 39 -49 8 -24 21 -42 28 -40 7 1 10 -2 6 -8
-9 -15 14 -41 29 -33 6 3 8 3 4 -2 -11 -11 10 -45 25 -40 6 3 20 -10 30 -27
l17 -33 -20 24 c-11 13 -20 20 -20 17 0 -12 73 -95 80 -91 4 2 7 -2 7 -10 0
-8 -3 -15 -6 -15 -3 0 -51 25 -105 55 -69 38 -102 52 -107 44 -8 -14 -1 -39
11 -39 4 0 63 -37 131 -81 194 -128 218 -143 309 -191 47 -25 112 -60 145 -78
33 -18 98 -53 145 -78 179 -95 236 -126 272 -149 21 -12 40 -23 43 -23 3 0 49
-27 102 -60 119 -73 227 -110 321 -110 57 0 79 -6 142 -36 41 -19 99 -54 129
-77 29 -23 63 -46 74 -52 11 -5 23 -17 28 -25 4 -8 14 -94 23 -190 9 -96 28
-224 42 -285 14 -60 29 -158 33 -216 5 -59 12 -112 15 -118 11 -17 133 -421
181 -596 24 -88 49 -173 55 -190 19 -51 62 -118 69 -107 6 10 32 -11 30 -25 0
-4 5 -9 12 -12 8 -2 9 1 3 10 -4 8 6 1 24 -16 l31 -29 -37 -30 c-61 -50 -92
-86 -158 -186 -97 -146 -106 -155 -133 -140 -13 6 -55 21 -95 32 -106 29 -276
98 -294 119 -9 10 -19 16 -23 14 -4 -3 -10 2 -13 11 -3 8 -2 12 4 9 6 -3 7 1
4 9 -3 9 -11 13 -17 9 -6 -3 -7 -1 -3 5 4 6 -2 28 -13 49 -11 21 -20 32 -21
24 0 -8 -3 -11 -6 -8 -4 4 -2 13 5 21 9 11 4 32 -28 99 -67 146 -126 188 -292
208 -128 15 -383 6 -457 -16 l-52 -16 -57 39 c-50 34 -166 123 -254 195 -15
12 -73 65 -130 118 -57 53 -136 123 -175 156 -47 41 -84 84 -111 129 -51 86
-101 186 -119 236 -12 34 -11 38 3 38 8 0 33 -10 54 -22 79 -44 67 -11 -73
198 -73 109 -154 229 -180 265 -56 79 -81 137 -145 339 -58 181 -79 258 -71
265 3 3 25 -6 49 -20 24 -13 55 -25 69 -25 19 0 30 -10 48 -42 27 -52 80 -110
93 -103 5 4 6 -2 2 -11 -5 -13 -3 -16 10 -11 9 3 19 1 23 -5 4 -7 3 -8 -4 -4
-25 15 -10 -5 41 -53 28 -27 53 -46 55 -41 2 5 9 4 17 -3 7 -7 10 -16 7 -21
-3 -5 0 -6 7 -1 17 10 -48 78 -67 70 -7 -3 -10 0 -6 6 3 6 -27 45 -68 87 -99
102 -105 114 -76 152 18 22 30 28 55 27 18 -1 33 -6 33 -10 0 -5 5 -5 12 -1
18 12 -30 44 -66 44 -28 0 -36 6 -56 43 -13 23 -65 103 -115 178 -138 204
-255 442 -305 622 -38 135 -42 175 -23 209 5 9 183 -109 183 -121z m8079 57
c1 -48 -94 -296 -140 -368 -20 -30 -61 -93 -91 -140 -30 -47 -90 -128 -134
-181 -92 -112 -169 -210 -202 -256 -15 -22 -31 -33 -47 -33 -32 0 -106 -30
-100 -40 3 -5 2 -10 -2 -13 -5 -2 -2 -2 5 0 49 12 92 14 92 5 0 -6 10 -20 21
-31 21 -19 21 -21 5 -45 -18 -29 -125 -122 -262 -228 -96 -75 -113 -104 -28
-46 133 88 317 250 330 290 3 11 15 18 32 18 15 0 56 14 91 30 35 17 66 28 68
26 7 -7 -13 -66 -83 -239 -117 -289 -107 -273 -424 -642 -111 -130 -160 -190
-160 -199 0 -11 27 -6 71 14 54 24 69 25 69 3 0 -38 -154 -275 -216 -334 -22
-20 -70 -58 -109 -85 -38 -26 -125 -90 -192 -141 -171 -131 -407 -280 -472
-300 -47 -13 -66 -14 -140 -3 -127 18 -537 19 -614 1 -52 -12 -142 -92 -174
-154 -14 -28 -35 -67 -48 -87 -76 -121 -115 -177 -132 -193 -25 -21 -128 -57
-303 -103 -74 -20 -144 -40 -156 -44 -18 -7 -35 5 -111 78 -93 90 -196 153
-327 203 l-58 21 49 17 c27 9 72 31 100 49 27 18 57 32 65 32 9 0 34 10 57 22
33 17 47 34 71 87 17 35 35 85 41 110 6 25 34 107 62 181 44 119 78 203 199
500 20 47 34 103 38 150 4 41 22 120 39 175 37 114 62 228 87 398 l18 118 49
25 c27 14 67 38 89 54 22 16 77 44 122 61 67 27 96 33 171 35 119 2 232 34
361 100 110 57 351 167 729 334 127 55 298 137 382 182 84 44 153 79 155 77 6
-5 86 41 90 51 2 6 21 13 43 15 47 3 302 123 419 197 45 28 146 94 225 147
250 166 264 174 273 154 3 -10 7 -35 7 -55z m-7431 -263 c-3 -3 -9 2 -12 12
-6 14 -5 15 5 6 7 -7 10 -15 7 -18z m2728 -414 c5 -5 41 -20 79 -33 39 -13 82
-32 96 -41 33 -22 79 -90 79 -116 0 -11 5 -23 10 -26 6 -3 10 -19 10 -36 0
-16 3 -29 8 -29 4 0 6 -17 4 -37 -2 -21 6 -110 19 -198 31 -224 29 -403 -10
-885 -13 -154 -31 -497 -32 -605 0 -44 -9 -152 -20 -239 -22 -189 -24 -266 -6
-266 8 0 9 -2 1 -8 -17 -11 -30 -129 -23 -207 4 -42 24 -116 49 -185 57 -159
100 -372 107 -536 6 -139 -3 -288 -17 -279 -4 3 -11 -12 -15 -32 -4 -20 -29
-99 -57 -176 -36 -99 -47 -142 -40 -149 30 -30 83 75 106 208 9 48 13 91 10
95 -3 5 -1 9 4 9 5 0 9 6 9 13 0 6 4 30 8 52 16 88 13 283 -5 448 -17 143 -27
189 -65 303 -40 120 -45 144 -45 222 1 93 12 168 27 183 5 5 36 19 69 30 118
42 258 29 313 -30 16 -17 36 -31 43 -31 8 0 54 -25 103 -55 48 -30 105 -58
126 -61 100 -16 236 -156 369 -376 19 -32 38 -58 43 -58 4 0 5 6 1 13 -5 8 -4
9 3 2 18 -19 52 -111 68 -186 8 -41 22 -141 31 -223 8 -82 17 -152 18 -155 2
-3 0 -67 -5 -141 -5 -74 -10 -151 -11 -170 -1 -19 4 -88 11 -154 22 -191 2
-302 -90 -491 -43 -90 -131 -197 -226 -275 -50 -41 -69 -65 -97 -125 -20 -41
-39 -87 -42 -102 -4 -16 -10 -32 -14 -38 -4 -5 -11 -30 -15 -55 -4 -25 -25
-82 -46 -127 -31 -64 -50 -90 -91 -123 -58 -46 -85 -47 -144 -7 -54 36 -74 92
-74 207 0 79 -3 100 -14 100 -20 0 -36 -53 -36 -116 l0 -53 -57 -21 c-70 -26
-104 -22 -195 20 -36 17 -79 32 -95 34 -17 3 -64 20 -104 39 -63 30 -88 36
-169 41 -52 3 -104 8 -116 12 -15 4 -23 -1 -32 -21 -11 -24 -16 -26 -69 -23
-54 3 -58 5 -66 33 -18 61 -34 81 -105 130 -76 52 -136 124 -186 223 -14 28
-26 53 -26 55 0 2 37 3 83 3 75 0 86 2 131 32 l50 32 28 -43 c15 -23 28 -47
28 -52 0 -6 19 -30 43 -52 43 -43 116 -82 153 -83 11 0 31 -11 43 -24 12 -13
37 -32 56 -42 l34 -18 40 28 c23 16 41 32 41 37 0 4 26 17 58 29 73 27 123 60
193 127 55 52 56 53 68 30 34 -63 216 -128 302 -107 24 6 58 13 74 16 17 3 44
9 60 15 26 8 32 7 44 -11 19 -28 63 -26 99 5 26 22 29 30 25 64 -4 25 2 60 15
98 18 51 20 77 16 173 -4 96 -9 127 -36 196 l-31 83 21 53 c27 68 29 80 16 84
-5 3 -20 -14 -33 -36 -31 -55 -30 -124 3 -228 32 -103 33 -171 4 -285 l-23
-88 22 -40 21 -39 -24 -6 c-13 -3 -24 -10 -24 -14 0 -14 -54 -1 -67 16 -12 17
-16 17 -77 -5 -46 -16 -82 -22 -127 -20 -71 3 -178 39 -227 76 -51 38 -57 60
-39 134 9 35 15 81 13 102 -2 20 0 37 4 37 4 0 7 18 7 40 0 22 -4 37 -9 34 -5
-3 -8 -16 -7 -27 0 -12 0 -24 -1 -27 -2 -3 -4 -23 -6 -45 -7 -95 -30 -154 -85
-218 -66 -76 -88 -95 -116 -103 -13 -3 -20 -10 -17 -16 3 -5 0 -8 -7 -7 -16 3
-96 -36 -117 -57 -7 -8 -29 -26 -48 -41 l-35 -26 -43 42 c-24 24 -48 43 -52
43 -40 1 -123 41 -151 72 -40 43 -51 65 -84 161 -19 54 -28 71 -28 53 -1 -16
-7 -28 -13 -28 -7 0 -25 -15 -40 -34 -28 -35 -88 -56 -161 -56 -50 0 -127 34
-153 68 -31 39 -84 72 -118 72 l-26 0 6 73 c8 90 30 191 43 195 6 2 13 20 17
40 4 20 10 44 15 53 13 26 13 221 0 262 -12 35 -33 48 -45 28 -3 -5 1 -28 9
-51 16 -45 19 -99 8 -139 -6 -22 -8 -20 -20 20 -47 152 -82 487 -65 628 15
129 62 385 72 395 5 5 6 15 3 22 -3 8 0 14 6 14 6 0 10 4 9 9 -4 10 33 61 169
239 75 97 93 125 62 97 -24 -22 -38 -33 -33 -25 45 64 86 106 143 141 36 23
77 50 91 59 23 15 28 16 57 2 38 -18 40 -27 37 -215 -2 -107 -7 -154 -18 -176
-27 -51 -93 -511 -75 -511 4 0 17 41 28 91 20 84 26 120 51 296 4 34 17 79 27
100 15 31 18 62 18 173 -1 74 -4 150 -8 168 -13 50 19 38 63 -26 30 -45 58
-40 79 13 11 29 15 75 14 161 l0 121 -46 99 c-80 174 -79 170 -79 288 1 113 6
157 27 242 7 28 19 96 25 150 16 129 58 209 170 329 103 109 151 205 176 351
14 86 15 117 6 197 -6 53 -20 117 -31 142 -19 44 -20 49 -5 78 16 30 26 89 14
82 -4 -2 -12 -22 -20 -44 -15 -46 -24 -50 -42 -21 -28 44 -33 16 -7 -37 65
-133 65 -363 0 -528 -19 -46 -88 -145 -145 -205 -123 -131 -154 -199 -167
-368 -5 -70 -15 -181 -22 -247 -18 -180 -15 -239 16 -309 16 -34 22 -56 14
-53 -6 2 -21 1 -32 -4 -16 -6 -17 -8 -3 -8 9 -1 29 -16 43 -33 15 -18 24 -26
19 -18 -4 9 -3 12 2 7 5 -5 9 -12 9 -15 1 -4 6 -16 12 -27 24 -44 45 -164 39
-217 -9 -74 -17 -84 -48 -64 -14 9 -35 19 -47 21 -46 9 -156 115 -234 225 -67
96 -165 328 -128 306 6 -4 11 0 11 8 0 9 8 15 18 14 55 -4 92 3 102 21 9 17 7
18 -16 12 -14 -3 -43 -5 -64 -3 -38 4 -38 5 -46 55 -8 58 -8 308 0 591 5 180
4 192 -19 265 -29 89 -30 98 -10 81 12 -10 15 -9 15 7 0 18 -31 67 -51 83 -15
12 -39 71 -45 111 -4 24 -11 52 -16 62 -6 12 -5 23 3 33 6 8 8 14 4 14 -4 0
-3 6 2 13 6 6 15 33 21 59 9 36 26 61 74 110 35 36 83 77 108 92 32 20 60 52
95 108 84 132 316 345 381 348 5 0 14 -4 20 -9z m-3086 -466 c13 -14 19 -25
14 -25 -8 1 -50 50 -41 50 2 0 14 -11 27 -25z m170 -175 c0 -5 -2 -10 -4 -10
-3 0 -8 5 -11 10 -3 6 -1 10 4 10 6 0 11 -4 11 -10z m1728 -1995 c-3 -3 -9 2
-12 12 -6 14 -5 15 5 6 7 -7 10 -15 7 -18z m1531 -2765 c50 -23 96 -38 101
-35 12 8 12 1 1 -121 -6 -55 -12 -191 -16 -304 -9 -328 -16 -473 -21 -482 -3
-5 -14 -75 -24 -156 -10 -81 -22 -169 -26 -197 -4 -27 -6 -113 -5 -190 2 -114
6 -148 22 -181 23 -48 24 -70 5 -115 -8 -19 -21 -80 -31 -135 -14 -86 -15
-120 -6 -220 10 -106 20 -151 63 -296 6 -21 14 -36 17 -34 3 2 7 -33 9 -78 3
-74 1 -84 -19 -101 -12 -11 -33 -38 -47 -60 l-25 -39 11 -121 c13 -134 19
-719 9 -835 -3 -41 -9 -115 -12 -165 -12 -165 -29 -270 -44 -260 -5 2 -9 -17
-9 -44 -1 -27 -6 -61 -12 -75 -12 -34 -13 -46 -1 -46 11 0 32 91 24 104 -3 5
-2 6 4 3 5 -3 18 -32 28 -64 10 -32 24 -75 31 -96 8 -20 14 -60 14 -87 0 -29
8 -65 20 -87 15 -30 21 -69 27 -193 6 -127 9 -145 14 -100 10 83 10 339 -1
480 -6 69 -12 184 -15 255 -3 72 -7 184 -10 251 -3 66 -7 242 -10 390 -8 394
-13 524 -26 602 -14 86 -10 106 37 161 36 41 37 45 35 112 -1 40 -12 99 -25
140 l-23 70 44 89 c37 76 45 106 58 202 8 63 19 139 25 169 6 29 10 117 10
194 -1 120 18 399 35 515 5 34 28 317 40 495 10 149 24 263 44 354 11 47 22
110 26 139 7 52 8 53 34 46 14 -4 43 -7 64 -7 32 1 38 -1 32 -15 -43 -111 -55
-175 -111 -577 -13 -99 -33 -232 -44 -295 -21 -124 -36 -284 -45 -474 -3 -65
-10 -139 -16 -165 -19 -83 -22 -463 -5 -581 20 -128 20 -149 2 -169 -16 -18
-43 -109 -58 -196 -7 -38 -11 -429 -13 -1045 -2 -542 -7 -1052 -12 -1135 l-8
-150 -19 38 c-14 26 -26 37 -42 37 -20 0 -22 -5 -22 -51 -1 -28 -3 -53 -5 -56
-3 -2 -21 10 -40 27 -20 17 -51 33 -69 36 -39 6 -114 -18 -110 -36 1 -6 -2 -8
-8 -5 -6 4 -20 -1 -30 -10 -31 -28 -40 -10 -34 64 5 70 40 219 92 396 31 104
34 167 12 250 -6 26 -8 115 -3 250 14 428 7 1066 -13 1156 -9 44 -25 562 -18
588 4 14 8 29 8 34 1 4 14 23 29 42 44 55 61 116 54 197 -4 43 -13 81 -26 101
-11 18 -25 62 -30 97 -9 57 -8 69 9 105 11 23 23 63 26 89 12 87 -27 800 -68
1241 -11 121 -20 244 -19 273 0 29 -4 73 -8 98 l-9 46 43 -6 c24 -3 85 -24
134 -46z m302 -96 c21 -22 21 -24 6 -96 -29 -136 -57 -418 -93 -943 -3 -44 -7
-96 -10 -115 -4 -41 -25 -285 -28 -347 -2 -23 0 -40 5 -38 4 3 5 -4 2 -15 -3
-11 -9 -20 -13 -20 -5 0 -11 -48 -14 -107 -4 -60 -15 -146 -26 -193 -10 -47
-22 -105 -25 -130 -10 -61 -46 -145 -56 -129 -4 7 -11 47 -15 89 -3 41 -10 85
-15 98 -10 26 11 155 43 256 21 67 21 71 5 116 -33 93 -40 258 -19 455 7 66
17 167 23 225 6 58 21 179 34 270 19 130 24 220 27 422 3 251 4 258 23 258 11
0 36 8 55 19 l35 19 18 -36 c9 -20 27 -46 38 -58z m184 -349 c-8 -116 -50
-375 -101 -628 -24 -121 -44 -223 -45 -226 0 -3 -4 3 -9 15 -9 22 9 174 60
519 17 116 35 242 41 280 5 39 14 102 20 140 l12 70 14 -45 c10 -31 12 -70 8
-125z m452 -1007 c-3 -8 -6 -5 -6 6 -1 11 2 17 5 13 3 -3 4 -12 1 -19z m-1338
-257 c1 -50 -7 -48 -25 6 -10 27 -10 42 -2 57 11 20 11 20 19 1 4 -11 8 -40 8
-64z m-1198 36 c-10 -9 -11 -8 -5 6 3 10 9 15 12 12 3 -3 0 -11 -7 -18z m1926
-249 c5 -67 3 -79 -15 -103 -14 -17 -23 -22 -28 -14 -8 14 -6 220 3 269 l7 35
13 -55 c8 -30 16 -90 20 -132z m-708 -175 c1 -72 -3 -134 -8 -138 -12 -7 -33
92 -34 164 -1 31 5 85 13 120 l15 65 7 -40 c4 -21 7 -98 7 -171z m-1369 34 c0
-2 -12 -14 -27 -28 l-28 -24 24 28 c23 25 31 32 31 24z m1617 -909 c-3 -8 -6
-5 -6 6 -1 11 2 17 5 13 3 -3 4 -12 1 -19z m202 -1118 c11 -156 13 -384 4
-330 -2 14 -13 59 -25 100 -32 116 -37 159 -28 245 5 44 12 125 16 180 l8 100
7 -65 c4 -36 13 -139 18 -230z m1875 -149 c50 -67 56 -80 56 -124 0 -35 6 -58
23 -80 12 -18 27 -41 33 -53 19 -35 104 -142 170 -213 33 -36 71 -83 83 -103
21 -36 32 -43 56 -38 6 1 7 -2 3 -6 -14 -14 45 -52 113 -74 38 -12 71 -25 73
-29 11 -17 -103 -33 -210 -30 -104 4 -115 6 -186 42 -53 26 -89 37 -120 37
-24 0 -53 7 -64 15 -12 8 -25 11 -29 7 -5 -4 -5 -2 -2 4 8 13 -20 27 -34 18
-5 -3 -8 0 -7 8 2 8 -6 13 -19 12 -13 0 -21 2 -18 5 7 7 -76 31 -86 25 -4 -2
-3 10 2 28 5 18 12 71 15 118 4 63 12 99 32 139 32 67 44 145 42 281 -1 71 2
102 9 95 5 -5 35 -43 65 -84z m-2345 -183 c-12 -65 -11 -67 16 -115 16 -26 35
-55 43 -63 8 -8 21 -30 30 -50 8 -19 19 -38 26 -42 7 -5 12 -57 14 -148 l4
-142 -28 19 c-15 10 -51 23 -78 29 -28 6 -84 19 -124 28 -40 9 -88 16 -106 16
-32 0 -33 2 -42 54 l-10 54 50 46 c28 25 71 63 95 86 l44 40 -6 87 c-5 83 -4
89 31 166 l36 80 9 -39 c5 -25 4 -63 -4 -106z m-792 -734 c-3 -3 -12 -4 -19
-1 -8 3 -5 6 6 6 11 1 17 -2 13 -5z"/>
<path d="M7452 12403 c-6 -2 -9 -10 -5 -16 4 -6 0 -8 -9 -4 -16 5 -37 -12 -52
-43 -4 -8 2 -4 13 9 12 13 21 20 21 16 0 -4 16 2 36 14 19 12 36 21 38 21 2 0
4 -29 5 -63 2 -71 -22 -149 -81 -260 -35 -66 -141 -179 -308 -327 -186 -166
-268 -250 -263 -271 11 -40 23 -34 234 116 90 64 169 113 176 110 42 -17 48
-17 29 -1 -11 9 -16 16 -12 16 5 0 3 7 -4 15 -7 8 -18 15 -25 15 -7 0 -55 -27
-106 -61 l-94 -60 90 82 c175 161 279 272 313 337 68 127 97 259 76 340 -6 22
-38 29 -72 15z"/>
<path d="M7339 12303 c-13 -16 -12 -17 4 -4 16 13 21 21 13 21 -2 0 -10 -8
-17 -17z"/>
<path d="M1686 12158 c-14 -8 -17 -17 -12 -47 5 -28 4 -33 -4 -21 -9 11 -10 3
-5 -35 21 -172 105 -295 323 -475 34 -28 62 -54 62 -56 0 -2 -24 9 -53 26 -62
35 -78 37 -100 12 -21 -23 -22 -39 -2 -22 16 13 47 -3 228 -121 60 -40 83 -50
102 -45 48 12 29 41 -97 148 -212 179 -314 275 -347 326 -67 105 -110 262 -81
297 17 20 10 26 -14 13z"/>
<path d="M1255 11326 c-15 -11 -17 -23 -13 -78 5 -54 15 -83 54 -158 50 -95
103 -154 195 -215 24 -16 62 -43 84 -60 22 -17 57 -39 77 -50 52 -27 41 -30
-21 -5 -69 27 -88 26 -105 -9 -18 -34 -10 -48 13 -21 15 18 21 16 170 -56 133
-65 158 -74 176 -64 12 6 22 18 22 26 0 8 -100 81 -221 163 -122 82 -241 169
-265 193 -56 54 -114 144 -141 214 -24 66 -25 100 -4 112 10 5 12 12 7 15 -6
4 -18 0 -28 -7z"/>
<path d="M1361 10604 c0 -11 3 -14 6 -6 3 7 2 16 -1 19 -3 4 -6 -2 -5 -13z"/>
<path d="M1575 10579 c-5 -8 -4 -10 3 -5 7 4 13 1 14 -6 0 -7 2 -17 2 -23 4
-26 58 -95 69 -89 7 4 9 4 5 -1 -11 -12 24 -65 42 -62 8 1 14 -4 13 -13 -1 -8
30 -50 70 -92 53 -58 76 -75 86 -69 11 7 -5 30 -74 103 -48 51 -92 92 -96 91
-5 -2 -8 3 -6 10 1 6 -4 11 -11 9 -8 -1 -11 2 -7 8 8 13 -14 42 -25 35 -4 -3
-14 3 -21 13 -13 15 -12 16 4 3 26 -21 20 -3 -15 43 -46 59 -45 59 -53 45z
m49 -55 c3 -8 2 -12 -4 -9 -6 3 -10 10 -10 16 0 14 7 11 14 -7z m157 -191 c13
-17 13 -17 -6 -3 -11 8 -22 16 -24 17 -2 2 0 3 6 3 6 0 17 -8 24 -17z m39 -43
c6 -11 8 -20 6 -20 -3 0 -10 9 -16 20 -6 11 -8 20 -6 20 3 0 10 -9 16 -20z"/>
<path d="M1881 10210 c-16 -9 -22 0 68 -94 50 -52 82 -73 65 -43 -4 7 -3 9 2
4 5 -5 9 -12 9 -15 0 -13 16 -32 26 -32 6 0 7 5 3 12 -4 7 -3 8 5 4 6 -4 9
-11 6 -16 -3 -4 14 -22 37 -39 31 -23 44 -28 50 -18 5 8 8 5 8 -9 0 -22 24
-39 41 -28 5 3 8 1 7 -4 -2 -5 21 -30 50 -56 28 -27 52 -52 52 -57 0 -5 -14
-9 -31 -9 -19 0 -28 -4 -23 -11 4 -8 -3 -9 -23 -5 -23 5 -34 1 -62 -26 -29
-28 -32 -37 -27 -69 8 -49 32 -95 39 -75 7 17 -2 57 -12 52 -15 -10 -2 58 15
77 10 12 18 24 17 27 -1 3 30 3 69 0 38 -3 73 -3 77 0 11 8 7 35 -6 35 -6 0
-15 4 -20 9 -5 5 -3 6 5 2 18 -11 15 2 -9 35 -16 23 -26 28 -42 24 -15 -4 -18
-3 -9 3 16 11 -22 44 -155 136 -46 32 -85 62 -89 67 -3 5 -15 7 -27 4 -14 -4
-17 -3 -9 2 9 7 4 17 -20 39 -17 16 -27 23 -23 15 5 -9 4 -12 -3 -7 -6 4 -9
12 -6 19 7 19 -38 58 -55 47z m436 -416 c-3 -3 -12 -4 -19 -1 -8 3 -5 6 6 6
11 1 17 -2 13 -5z"/>
<path d="M1415 10071 c-17 -16 20 -115 38 -104 6 3 7 1 3 -5 -4 -7 4 -31 18
-55 30 -51 99 -130 89 -103 -4 13 -3 17 5 12 7 -4 12 -13 12 -20 0 -16 44 -58
57 -54 6 2 19 -8 30 -21 17 -21 21 -22 26 -8 4 11 -1 21 -16 28 -43 23 -129
102 -161 150 -18 27 -36 46 -41 41 -5 -4 -5 -1 -1 5 8 14 -11 56 -23 49 -11
-7 -11 67 1 81 7 9 4 11 -12 10 -11 -1 -23 -3 -25 -6z m95 -186 c7 -9 8 -15 2
-15 -5 0 -12 7 -16 15 -3 8 -4 15 -2 15 2 0 9 -7 16 -15z m39 -59 c-3 -3 -11
5 -18 17 -13 21 -12 21 5 5 10 -10 16 -20 13 -22z m62 -53 c13 -16 12 -17 -3
-4 -10 7 -18 15 -18 17 0 8 8 3 21 -13z"/>
<path d="M1479 10056 c7 -8 22 -11 39 -8 l27 6 -25 7 c-43 12 -54 11 -41 -5z"/>
<path d="M1820 9656 c0 -2 8 -10 18 -17 15 -13 16 -12 3 4 -13 16 -21 21 -21
13z"/>
<path d="M1861 9624 c0 -11 3 -14 6 -6 3 7 2 16 -1 19 -3 4 -6 -2 -5 -13z"/>
<path d="M2187 9607 c-8 -20 50 -90 66 -80 5 3 7 1 4 -4 -4 -6 0 -16 8 -23 13
-11 14 -10 9 5 -5 13 -4 16 4 11 7 -4 12 -13 12 -21 0 -19 39 -45 57 -38 7 3
13 2 12 -3 -3 -20 2 -34 12 -34 5 0 7 5 4 10 -3 6 0 10 7 10 11 0 -59 53 -72
55 -5 0 -70 69 -98 104 -16 21 -20 22 -25 8z m32 -41 c-3 -3 -11 5 -18 17 -13
21 -12 21 5 5 10 -10 16 -20 13 -22z m112 -93 c13 -16 12 -17 -3 -4 -10 7 -18
15 -18 17 0 8 8 3 21 -13z"/>
<path d="M2395 9430 c-3 -5 -1 -10 4 -10 6 0 11 5 11 10 0 6 -2 10 -4 10 -3 0
-8 -4 -11 -10z"/>
<path d="M2424 9423 c4 -7 2 -13 -4 -13 -6 0 -8 -5 -4 -11 4 -8 9 -8 17 0 8 8
7 14 -2 24 -11 10 -13 10 -7 0z"/>
<path d="M2441 9387 c24 -19 77 -43 73 -34 -4 12 -50 37 -68 37 -5 0 -7 -1 -5
-3z"/>
<path d="M2530 9350 c0 -5 9 -14 20 -20 11 -6 20 -9 20 -8 0 2 -9 11 -20 21
-11 9 -20 13 -20 7z"/>
<path d="M2611 9301 c-11 -7 -9 -11 7 -20 24 -13 39 1 19 17 -7 6 -18 7 -26 3z"/>
<path d="M2656 9272 c-3 -5 1 -9 9 -9 8 0 12 4 9 9 -3 4 -7 8 -9 8 -2 0 -6 -4
-9 -8z"/>
<path d="M8140 11329 c0 -5 -6 -7 -12 -3 -7 4 -10 3 -5 -1 9 -10 57 -13 57 -4
0 4 -7 10 -16 13 -21 8 -24 8 -24 -5z"/>
<path d="M8186 11305 c-20 -76 -30 -99 -77 -169 -28 -42 -72 -95 -98 -118 -49
-44 -184 -127 -346 -213 -152 -81 -258 -149 -261 -167 -5 -36 37 -28 209 42
177 71 204 79 224 59 8 -8 13 -7 18 2 5 7 4 10 -3 5 -6 -4 -12 3 -14 16 -5 34
-43 34 -132 -2 -43 -17 -79 -30 -81 -28 -2 2 53 35 123 73 242 134 311 189
391 314 46 73 64 125 59 179 l-4 37 -8 -30z"/>
<path d="M8080 11299 c-22 -18 -22 -19 -3 -10 12 6 25 16 28 21 9 15 3 12 -25
-11z"/>
<path d="M7794 10627 c-10 -12 -41 -49 -69 -81 -75 -89 -435 -410 -520 -465
-41 -26 -72 -51 -67 -56 4 -5 1 -5 -5 -1 -17 9 -55 -12 -47 -26 4 -7 2 -8 -5
-4 -17 11 -150 -75 -200 -129 -61 -66 -56 -77 27 -69 52 5 75 3 98 -9 53 -28
59 -41 39 -94 -22 -58 -71 -112 -146 -162 -32 -21 -55 -42 -51 -46 4 -5 2 -5
-5 -2 -10 6 -230 -95 -243 -112 -3 -3 -13 -7 -23 -9 -24 -4 -187 -102 -187
-111 0 -4 -12 -13 -26 -20 -15 -6 -24 -14 -21 -17 3 -3 34 13 69 35 36 22 140
77 232 121 91 45 165 84 162 88 -2 4 6 8 19 8 31 2 132 72 179 124 43 48 75
112 76 151 0 29 -35 66 -71 76 -13 3 -44 7 -69 8 -42 2 -46 5 -38 23 7 16 91
73 223 152 176 104 126 64 451 361 98 91 192 199 238 277 12 19 1 14 -20 -11z"/>
<path d="M7920 10080 c0 -5 -13 -8 -30 -6 -16 2 -30 -1 -30 -5 0 -5 -18 -6
-40 -3 -25 4 -40 3 -40 -4 0 -6 27 -8 70 -6 l71 4 -20 -38 c-39 -77 -122 -170
-189 -213 -17 -11 -30 -24 -27 -29 3 -4 -1 -7 -8 -7 -16 2 -204 -90 -213 -104
-10 -16 38 0 52 17 6 7 14 11 17 8 7 -7 76 25 158 72 104 61 249 237 249 304
0 11 -4 20 -10 20 -5 0 -10 -4 -10 -10z"/>
<path d="M7748 10043 c7 -3 16 -2 19 1 4 3 -2 6 -13 5 -11 0 -14 -3 -6 -6z"/>
<path d="M7440 9661 c0 -5 -7 -8 -16 -7 -9 0 -19 -6 -22 -14 -4 -12 -2 -13 9
-3 8 6 18 11 24 11 5 0 11 5 13 11 2 6 1 11 -2 11 -3 0 -6 -4 -6 -9z"/>
<path d="M7372 9634 c-7 -8 -8 -14 -3 -14 10 0 25 19 20 25 -2 1 -10 -3 -17
-11z"/>
<path d="M4258 10843 c7 -3 16 -2 19 1 4 3 -2 6 -13 5 -11 0 -14 -3 -6 -6z"/>
<path d="M3651 10646 c-12 -12 -28 -44 -37 -70 -10 -30 -25 -51 -39 -58 -14
-6 -21 -16 -18 -24 13 -35 65 5 94 73 22 51 53 82 81 83 9 0 20 4 23 10 3 5
-13 9 -39 8 -32 0 -51 -7 -65 -22z"/>
<path d="M3766 10655 c-4 -12 -1 -16 11 -13 18 3 21 20 5 26 -5 1 -12 -4 -16
-13z"/>
<path d="M3814 10651 c4 -5 3 -11 -1 -14 -5 -2 -3 -3 3 -1 6 1 16 -7 23 -17
12 -20 31 -18 31 3 0 5 -8 7 -17 4 -10 -4 -14 -4 -10 0 4 4 2 13 -4 21 -13 15
-33 18 -25 4z"/>
<path d="M3717 10602 c-33 -36 -14 -102 28 -102 47 0 72 71 37 103 -24 22 -45
21 -65 -1z"/>
<path d="M3870 10597 c0 -31 68 -70 105 -61 32 8 32 24 0 24 -14 0 -37 7 -50
16 -13 9 -29 13 -34 9 -7 -3 -8 0 -5 9 3 9 1 16 -5 16 -6 0 -11 -6 -11 -13z"/>
<path d="M4135 10530 c-11 -17 -35 -35 -55 -41 -77 -25 -114 -55 -150 -123
-19 -37 -54 -89 -78 -116 -37 -43 -49 -50 -80 -50 -21 0 -53 4 -72 10 -19 5
-38 6 -43 1 -14 -14 41 -41 94 -46 l51 -4 69 68 c58 58 71 66 81 54 7 -8 22
-13 35 -10 23 4 23 4 7 -15 -10 -10 -37 -23 -60 -29 -48 -12 -51 -39 -4 -39
48 0 102 69 135 174 7 22 16 49 20 60 7 15 5 17 -13 12 -11 -4 -23 -3 -26 2
-2 4 14 13 37 20 41 11 87 59 87 90 0 21 -14 13 -35 -18z"/>
<path d="M3892 10509 c-18 -12 -31 -24 -28 -26 7 -7 66 26 66 37 0 13 0 13
-38 -11z"/>
<path d="M3656 10463 c-12 -12 -6 -22 11 -16 12 5 14 3 8 -7 -5 -9 -4 -11 3
-6 7 4 12 11 12 16 0 10 -26 20 -34 13z"/>
<path d="M3696 10435 c-4 -12 3 -15 33 -15 47 0 73 9 65 21 -8 13 -42 11 -47
-3 -4 -10 -6 -10 -6 0 -1 17 -38 15 -45 -3z"/>
<path d="M3627 10224 c3 -8 10 -13 15 -12 16 6 14 21 -4 24 -11 1 -15 -3 -11
-12z"/>
<path d="M3901 9718 c-6 -19 -29 -69 -51 -112 -22 -43 -40 -92 -40 -109 0 -18
-7 -59 -15 -92 -18 -76 -18 -89 1 -46 8 19 19 64 24 101 9 64 31 124 51 135 5
4 7 11 4 16 -4 5 -2 9 3 9 11 0 48 118 40 126 -3 3 -11 -10 -17 -28z"/>
<path d="M3839 9478 c0 -7 -2 -22 -4 -33 -22 -146 -24 -198 -8 -229 9 -17 19
-33 22 -36 4 -3 19 -20 34 -38 15 -19 27 -29 27 -23 0 6 0 14 0 19 0 4 -4 7
-10 7 -5 0 -10 4 -9 9 0 5 -3 12 -8 15 -4 3 -16 20 -25 37 -15 27 -17 49 -11
158 3 69 3 126 0 126 -4 0 -7 -6 -8 -12z"/>
<path d="M3917 9106 c-4 -10 -3 -15 3 -11 6 3 10 1 10 -6 0 -7 3 -10 6 -6 3 3
2 13 -4 22 -8 16 -9 16 -15 1z"/>
<path d="M3832 7790 c0 -14 2 -19 5 -12 2 6 2 18 0 25 -3 6 -5 1 -5 -13z"/>
<path d="M3807 7651 c-36 -188 -23 -245 92 -399 48 -64 104 -143 125 -175 45
-68 60 -80 43 -35 -21 58 -84 161 -135 221 -71 83 -92 160 -92 334 0 72 -4
134 -8 137 -5 3 -16 -35 -25 -83z"/>
<path d="M3770 7030 c0 -5 14 -25 32 -45 28 -33 32 -44 39 -132 5 -52 10 -98
13 -100 2 -3 7 17 11 44 3 26 8 56 10 66 2 10 -1 34 -7 54 -8 28 -12 33 -20
22 -7 -10 -8 -7 -4 12 4 19 -2 33 -24 57 -29 32 -50 41 -50 22z"/>
<path d="M4694 7006 c-15 -16 -47 -116 -40 -123 7 -7 54 45 61 67 3 8 1 27 -3
41 -5 20 -10 24 -18 15z m-3 -39 c-10 -9 -11 -8 -5 6 3 10 9 15 12 12 3 -3 0
-11 -7 -18z"/>
<path d="M3730 5891 c0 -11 -3 -26 -6 -35 -3 -9 -2 -16 3 -16 5 0 10 6 10 13
0 6 3 22 7 35 5 13 3 22 -3 22 -6 0 -11 -9 -11 -19z"/>
<path d="M3699 5708 c0 -7 -2 -20 -4 -28 -1 -8 -5 -28 -8 -45 -3 -16 -11 -54
-17 -83 -7 -29 -10 -56 -7 -58 5 -5 33 114 42 184 3 23 3 42 0 42 -3 0 -5 -6
-6 -12z"/>
<path d="M3657 5473 c-4 -3 -7 -13 -7 -22 1 -13 3 -13 11 2 11 19 8 33 -4 20z"/>
<path d="M3642 5345 c0 -16 2 -22 5 -12 2 9 2 23 0 30 -3 6 -5 -1 -5 -18z"/>
<path d="M3627 5297 c-4 -10 -7 -28 -6 -40 0 -21 1 -21 10 2 5 14 8 32 7 40
-3 13 -5 13 -11 -2z"/>
<path d="M3609 5208 c-1 -13 -3 -36 -5 -53 -2 -21 0 -25 6 -15 5 8 7 17 4 21
-2 4 0 19 6 33 6 16 6 27 0 31 -6 4 -11 -4 -11 -17z"/>
<path d="M3558 5030 c-16 -21 -58 -96 -94 -167 -37 -70 -76 -146 -89 -168 -12
-22 -20 -46 -17 -54 2 -8 0 -11 -6 -7 -13 8 -75 -102 -68 -121 3 -8 2 -11 -4
-8 -12 7 -33 -32 -24 -47 4 -6 3 -8 -4 -5 -6 4 -29 -32 -58 -90 -26 -54 -53
-111 -61 -127 -11 -22 -12 -26 -2 -20 8 4 4 -5 -9 -20 -12 -16 -22 -33 -22
-38 0 -6 -23 -58 -51 -116 -28 -59 -58 -127 -65 -151 -21 -65 -18 -167 6 -220
l20 -43 -26 -117 c-14 -64 -31 -132 -38 -151 -6 -19 -11 -46 -11 -60 0 -14 -4
-28 -8 -31 -4 -3 -25 -61 -46 -130 -92 -295 -162 -523 -196 -639 -20 -69 -41
-136 -45 -150 -21 -59 -137 -597 -147 -681 -3 -27 -10 -46 -14 -43 -5 3 -30
-14 -55 -38 l-47 -43 7 30 c17 67 25 127 30 215 l4 75 -12 -55 c-7 -30 -25
-113 -40 -184 -15 -70 -34 -139 -43 -152 -9 -15 -16 -48 -17 -83 0 -33 -4 -57
-8 -55 -12 7 -90 -111 -80 -121 4 -4 2 -5 -4 -3 -14 4 -205 -197 -196 -207 4
-5 2 -5 -5 -1 -7 4 -17 -3 -24 -16 -10 -20 -10 -22 2 -13 8 6 8 3 -1 -5 -10
-9 -19 -22 -21 -29 -3 -8 -16 -15 -30 -17 -35 -3 -180 -56 -212 -77 -19 -12
-27 -26 -27 -45 1 -51 112 -106 147 -71 5 5 59 11 119 13 99 2 116 5 179 35
53 24 82 31 120 30 57 -2 99 12 135 45 14 13 43 27 65 31 49 9 77 23 70 36 -4
5 -1 8 6 7 9 -2 16 19 22 67 13 112 -1 197 -57 334 -31 77 -32 102 -7 223 11
51 31 156 46 233 36 194 124 545 190 760 30 99 85 281 121 405 36 124 71 239
77 255 7 17 12 32 13 35 0 3 13 46 29 95 35 110 31 93 51 192 17 81 17 83 -5
147 -12 36 -23 93 -24 128 -2 66 -5 59 112 310 56 122 71 160 64 171 -3 5 -2
7 4 4 5 -3 49 71 98 166 48 95 92 177 97 183 4 6 5 19 2 28 -4 10 -2 16 5 14
7 -2 22 15 34 37 55 99 119 205 126 210 5 2 4 -15 -1 -38 -4 -23 -17 -94 -28
-157 -10 -63 -21 -126 -24 -140 -3 -14 -12 -70 -21 -125 -9 -55 -18 -105 -19
-111 -1 -7 -8 -19 -15 -28 -7 -9 -9 -16 -4 -16 17 0 31 42 58 170 15 69 28
132 30 140 3 8 15 69 29 135 62 308 64 345 14 275z m-338 -658 c0 -5 -7 -17
-15 -28 -14 -18 -14 -17 -4 9 12 27 19 34 19 19z m-776 -2803 c27 43 35 -40
11 -109 -18 -52 -15 -71 39 -212 29 -74 33 -149 15 -256 l-11 -64 -34 5 c-27
5 -41 -1 -77 -29 -24 -19 -57 -36 -73 -38 -107 -14 -144 -28 -144 -54 0 -11
-3 -13 -8 -5 -5 9 -21 7 -62 -7 -64 -23 -221 -27 -285 -8 -22 6 -46 11 -52 9
-19 -3 -16 17 5 27 9 5 37 12 61 16 47 7 146 69 171 108 8 13 41 50 73 82 31
33 53 62 48 66 -6 3 0 12 12 19 20 13 21 13 8 -2 -7 -10 -10 -17 -5 -17 18 0
64 69 58 87 -4 13 -3 14 3 5 12 -17 49 21 37 39 -4 7 -3 10 4 5 14 -8 55 50
46 66 -4 7 -3 10 1 5 18 -16 45 26 45 70 0 37 8 54 49 109 31 41 48 72 44 82
-4 13 -3 14 5 3 7 -9 12 -10 16 -2z m-344 -489 c0 -5 -5 -10 -11 -10 -5 0 -7
5 -4 10 3 6 8 10 11 10 2 0 4 -4 4 -10z m-30 -23 c0 -2 -10 -12 -22 -23 l-23
-19 19 23 c18 21 26 27 26 19z"/>
<path d="M4261 4855 c0 -34 3 -45 9 -35 4 9 5 31 0 50 -8 34 -8 33 -9 -15z"/>
<path d="M4265 4562 c4 -109 10 -154 24 -185 10 -23 26 -68 36 -100 18 -59 18
-59 -5 -130 -41 -124 -44 -252 -7 -231 7 4 9 4 5 -1 -4 -4 5 -28 19 -52 25
-43 26 -48 15 -107 -7 -33 -14 -77 -17 -96 -3 -19 -8 -46 -10 -60 -4 -28 -21
-278 -30 -445 -3 -60 -8 -121 -10 -135 -2 -14 -7 -65 -10 -115 -3 -49 -10
-128 -16 -175 -11 -106 -11 -130 0 -130 5 0 7 15 6 33 -2 17 1 37 5 42 14 18
60 422 71 619 10 209 23 345 40 447 13 71 9 102 -16 134 l-15 20 6 -20 c5 -16
4 -17 -4 -5 -6 8 -8 18 -5 23 3 5 -5 19 -17 32 -32 34 -29 111 9 210 25 64 28
81 18 94 -9 11 -9 13 0 8 9 -6 10 -1 2 23 -6 16 -14 28 -19 25 -4 -2 -5 7 -2
22 3 18 1 24 -6 19 -8 -5 -10 -1 -6 9 6 15 -15 80 -23 71 -3 -2 0 -15 7 -28
11 -22 11 -22 -5 -3 -10 13 -13 29 -9 47 7 34 -15 247 -28 268 -5 9 -7 -41 -3
-128z"/>
<path d="M5026 4689 c-2 -8 -7 -36 -9 -64 -3 -27 -11 -82 -18 -122 -10 -57
-10 -87 -1 -150 7 -43 13 -90 14 -105 1 -15 6 -24 10 -22 15 9 8 -44 -9 -74
-10 -18 -14 -36 -9 -48 7 -16 11 -12 31 26 24 44 31 93 19 124 -3 9 -11 13
-17 9 -5 -3 -7 -2 -4 4 7 11 -16 137 -23 129 -7 -6 -4 46 4 64 8 20 27 232 21
238 -2 3 -7 -1 -9 -9z"/>
<path d="M3389 4192 c-63 -189 -105 -295 -139 -356 l-34 -59 0 -163 c-1 -89 0
-161 2 -160 1 2 11 33 21 69 14 46 19 95 18 161 -1 82 2 99 20 124 22 29 132
319 138 362 9 68 17 115 21 122 3 5 2 8 -3 8 -4 0 -24 -49 -44 -108z"/>
<path d="M5546 4135 c6 -31 11 -41 18 -34 2 2 -2 18 -10 34 l-14 30 6 -30z"/>
<path d="M5566 4081 c-4 -7 -5 -15 -2 -18 9 -9 19 4 14 18 -4 11 -6 11 -12 0z"/>
<path d="M5004 3683 c4 -219 8 -419 10 -446 2 -26 9 -143 16 -260 6 -116 14
-219 16 -227 3 -8 7 -54 10 -103 2 -49 9 -96 15 -105 8 -14 9 -13 4 6 -6 22
-15 194 -15 287 0 28 -6 210 -15 405 -8 195 -15 422 -16 504 0 100 -4 145 -10
135 -7 -9 -8 23 -3 94 5 80 3 107 -6 107 -9 0 -10 -91 -6 -397z"/>
<path d="M5577 4053 c-4 -3 -7 -22 -7 -42 0 -20 -12 -83 -26 -141 -14 -58 -27
-114 -30 -125 -2 -11 -12 -37 -23 -58 -17 -34 -18 -42 -6 -90 70 -283 123
-585 140 -797 4 -47 9 -93 11 -103 1 -10 9 -93 16 -185 12 -156 13 -163 21
-107 4 33 5 76 2 95 -2 19 -5 64 -4 98 0 38 -4 61 -9 58 -6 -3 -8 20 -4 59 2
36 1 65 -4 65 -5 0 -9 26 -9 58 -1 96 -16 200 -26 177 -6 -13 -7 2 -4 40 4 44
2 55 -5 40 -7 -15 -8 -7 -5 30 4 38 3 45 -5 30 -8 -16 -9 -13 -5 16 3 21 -8
98 -27 190 -27 126 -33 176 -33 274 1 115 2 123 32 181 38 74 59 177 44 217
-10 27 -21 33 -34 20z"/>
<path d="M3200 3408 c0 -18 -2 -51 -5 -73 -4 -30 -3 -34 3 -15 15 44 22 120
12 120 -6 0 -10 -15 -10 -32z"/>
<path d="M2689 3270 c-3 -41 -12 -88 -34 -179 -9 -36 -14 -73 -12 -83 3 -10 2
-16 -2 -13 -5 2 -14 -21 -21 -53 -8 -31 -15 -61 -16 -67 -2 -9 -12 -57 -29
-135 -2 -14 -11 -52 -19 -85 -33 -131 -38 -153 -52 -220 -32 -157 -55 -300
-51 -317 3 -9 1 -18 -4 -20 -5 -2 -4 -16 1 -33 8 -27 9 -27 8 -5 0 14 2 33 6
42 4 9 5 21 2 27 -3 5 -2 11 2 13 5 1 24 75 41 163 18 88 46 212 61 275 44
178 112 529 105 540 -4 6 -1 17 5 25 6 8 9 19 5 25 -4 6 -1 17 5 25 6 8 9 19
5 26 -4 6 -2 15 6 19 10 7 10 14 2 32 l-12 23 -2 -25z"/>
<path d="M3187 3283 c-12 -20 -26 -303 -14 -303 4 0 7 28 7 63 0 34 5 102 10
152 9 85 8 106 -3 88z"/>
<path d="M3158 2948 c-4 -10 -5 -54 -3 -98 2 -47 0 -82 -6 -86 -6 -3 -9 -38
-8 -79 1 -39 -1 -77 -5 -83 -9 -15 -4 -152 6 -146 4 3 7 28 6 57 -1 29 4 113
11 187 12 139 12 279 -1 248z"/>
<path d="M4242 2538 c-1 -24 -5 -55 -8 -70 -3 -14 0 -29 5 -33 7 -4 11 3 11
17 0 13 3 47 6 76 4 29 2 52 -3 52 -5 0 -10 -19 -11 -42z"/>
<path d="M3127 2433 c-4 -3 -7 -18 -7 -31 0 -31 13 -21 17 13 4 26 1 30 -10
18z"/>
<path d="M4230 2404 c0 -8 5 -12 10 -9 6 4 8 11 5 16 -9 14 -15 11 -15 -7z"/>
<path d="M4226 2349 c-9 -58 -35 -309 -42 -406 -4 -68 -3 -93 6 -93 7 0 9 8 5
21 -5 13 -3 19 3 15 6 -3 12 45 16 132 4 75 11 186 17 245 6 60 8 111 6 114
-3 3 -8 -10 -11 -28z"/>
<path d="M3132 2350 c0 -14 2 -19 5 -12 2 6 2 18 0 25 -3 6 -5 1 -5 -13z"/>
<path d="M3840 2329 c0 -5 5 -7 10 -4 6 3 10 8 10 11 0 2 -4 4 -10 4 -5 0 -10
-5 -10 -11z"/>
<path d="M3114 2284 c-3 -19 -3 -39 2 -44 5 -5 10 10 12 36 3 53 -5 58 -14 8z"/>
<path d="M3816 2205 c-3 -8 -1 -15 4 -15 6 0 10 7 10 15 0 8 -2 15 -4 15 -2 0
-6 -7 -10 -15z"/>
<path d="M3106 2153 c-3 -21 -8 -92 -11 -158 -6 -117 -7 -146 -21 -350 -3 -55
-12 -113 -20 -130 -7 -16 -18 -79 -24 -140 -5 -60 -12 -121 -16 -135 -5 -24
-5 -24 10 -6 9 11 16 27 16 35 0 14 1 14 10 1 5 -8 10 -37 10 -64 0 -27 2 -47
5 -44 16 16 24 125 17 243 -2 28 -1 86 3 130 19 248 38 655 31 655 -2 0 -7
-17 -10 -37z m-59 -855 c-3 -8 -6 -5 -6 6 -1 11 2 17 5 13 3 -3 4 -12 1 -19z"/>
<path d="M5130 2155 c0 -14 4 -25 9 -25 4 0 6 11 3 25 -2 14 -6 25 -8 25 -2 0
-4 -11 -4 -25z"/>
<path d="M6481 2149 c0 -13 4 -33 9 -44 6 -15 8 -11 6 17 -2 40 -16 66 -15 27z"/>
<path d="M5150 2041 c0 -25 6 -27 13 -6 4 8 2 17 -3 20 -6 4 -10 -3 -10 -14z"/>
<path d="M2430 1970 c0 -16 2 -30 4 -30 2 0 6 14 8 30 3 17 1 30 -4 30 -4 0
-8 -13 -8 -30z"/>
<path d="M3205 1968 c-4 -13 -29 -219 -45 -370 -5 -42 -14 -184 -20 -315 -7
-131 -14 -239 -15 -241 -2 -2 -11 17 -20 42 -17 44 -45 63 -45 31 0 -22 28
-86 46 -107 9 -9 13 -21 10 -27 -6 -9 4 -147 20 -272 l6 -47 -44 -5 c-102 -13
-139 -28 -201 -83 -20 -19 -44 -34 -52 -34 -8 0 -15 -5 -15 -11 0 -5 -4 -8 -9
-4 -9 5 -126 -69 -168 -108 -13 -11 -23 -17 -23 -13 0 13 71 115 99 144 46 46
87 131 141 292 29 85 68 188 86 228 19 41 34 79 34 86 0 6 5 17 11 23 6 6 10
16 7 23 -6 18 -92 -154 -126 -252 -27 -75 -72 -188 -129 -321 -10 -22 -35 -51
-62 -70 -67 -48 -141 -207 -97 -207 33 0 129 60 214 132 77 66 160 105 232
110 85 5 123 24 130 63 3 17 0 84 -7 150 -7 69 -8 124 -3 130 5 6 11 127 14
270 4 236 21 565 31 640 11 72 15 135 10 135 -3 0 -7 -6 -10 -12z"/>
<path d="M5166 1965 c-9 -26 -7 -32 5 -12 6 10 9 21 6 23 -2 3 -7 -2 -11 -11z"/>
<path d="M2421 1904 c0 -11 3 -14 6 -6 3 7 2 16 -1 19 -3 4 -6 -2 -5 -13z"/>
<path d="M5840 1506 c0 -4 5 -17 12 -29 7 -12 13 -31 15 -41 2 -10 12 -39 23
-63 11 -25 33 -88 49 -141 69 -224 111 -334 143 -380 61 -85 101 -162 84 -162
-8 0 -24 12 -35 27 -12 14 -23 24 -25 22 -9 -8 80 -99 96 -99 19 0 28 20 16
35 -17 20 -141 231 -156 265 -9 19 -14 43 -13 54 1 10 -2 15 -7 12 -6 -4 -8 3
-4 16 3 14 1 19 -6 14 -7 -4 -10 -2 -6 7 8 21 -14 69 -28 61 -8 -5 -9 -2 -5
11 8 20 -23 126 -35 119 -4 -3 -5 2 -2 10 11 28 -68 229 -100 255 -9 8 -16 10
-16 7z m174 -432 c3 -8 2 -12 -4 -9 -6 3 -10 10 -10 16 0 14 7 11 14 -7z"/>
<path d="M4635 770 c3 -5 8 -10 11 -10 2 0 4 5 4 10 0 6 -5 10 -11 10 -5 0 -7
-4 -4 -10z"/>
</g>
</svg>
